<svg id="Layer_1" data-name="Layer 1" xmlns="http://www.w3.org/2000/svg" viewBox="0 0 1366 768">
  <defs>
    <style>
      .cls-1 {
        opacity: 0.2;
      }

      .cls-2 {
        fill: #000;
      }
    </style>
  </defs>
  <title>st</title>
  <g class="cls-1">
    <path class="cls-2" d="M1371.62,648.28a3.78,3.78,0,0,1,1.41-3c1-6.85,2.18-13.65,3.63-20.41a5.31,5.31,0,0,1-1.8-4.83c1.11-8,1.79-16.07,2.52-24.13-2.71.31-5.63-1.28-5.58-4.78.15-9.62,2.16-19.05,4.64-28.32a4.46,4.46,0,0,1-4.64-4.8v-28.8a4.54,4.54,0,0,1,3-4.48,5.21,5.21,0,0,1-.17-1.28V478.76a5.19,5.19,0,0,1,.4-2c.06-.68.14-1.35.2-2-.36-8.73-.6-17.47-.6-26.23V364.2c0-27.67-1.45-55.79,1-83.37.8-9.17,2-18.28,3.37-27.38V212.36a4.56,4.56,0,0,1,3.2-4.54c-4.18-4.76-8.7-9.24-13.26-13.52a4.39,4.39,0,0,1-1-5.38,5.39,5.39,0,0,1-1.26-6.06,5.55,5.55,0,0,1,.72-5.55c-.58-.33-1.16-.64-1.75-.95-33.33-17.22-139.24-42.27-183.56,1.54-12.19,12-28.67,37-63.11,49.49-12.35,4.47-25.72,5.16-38.85,5.44A733.91,733.91,0,0,1,928,220.26c-38.87-7.34-77.12-17.82-116.16-24.16a557.8,557.8,0,0,0-107.68-6.91c-26.46.87-54.9,4.5-74.39,22.41-11.48,10.54-18.58,25-23.72,39.72-13.07,37.4-14.89,77.62-21.79,116.62s-32.64,55.84-62.77,81.56c-26.34,22.49-40.69,29-58,59C444.73,541,448.17,611.62,475.13,637.74c25.78,25,44.36,26.87,98.19,53.6A472.33,472.33,0,0,1,683.5,767.5l682.5.5q2.09-6.11,4.1-12.16c-4.12-.7-5-6-2.53-8.52a5.48,5.48,0,0,1-.55-6.47,41.87,41.87,0,0,1-.76-6.49,16.43,16.43,0,0,0,.14-6.47,27.12,27.12,0,0,0,0-7.2,5.8,5.8,0,0,1-.18-1.08v-.08a3.38,3.38,0,0,1,0-.45V719c0-.14,0-.28,0-.42v0a5.78,5.78,0,0,1,.14-2.15h0a6.41,6.41,0,0,1-.18-1.08v-.07a3.53,3.53,0,0,1,0-.46v-.11c0-.14,0-.29,0-.43s0-.07,0-.11a3.4,3.4,0,0,1,.09-.46.13.13,0,0,1,0-.06l0-.09a5.66,5.66,0,0,1,0-2.89,5.86,5.86,0,0,1-.18-1.67v-.05h0a5.6,5.6,0,0,1,.14-1h0a.13.13,0,0,1,0-.06l0-.09a27.2,27.2,0,0,0,0-7.21,5.87,5.87,0,0,1-.18-1.1h0a5.9,5.9,0,0,1,0-1.11h0v0h0a5.45,5.45,0,0,1,.18-.8v0h0a5.45,5.45,0,0,1,.3-.76h0l0,0h0a2.21,2.21,0,0,1,.18-.34h0l0-.06h0a4.11,4.11,0,0,1,.61-.78h0a.12.12,0,0,0,.05-.05,3.47,3.47,0,0,1,.29-.25,5.68,5.68,0,0,1,.13-4,5.14,5.14,0,0,1-.2-.55v0a5.71,5.71,0,0,1-.21-1.75v-.06l0-.35a5.32,5.32,0,0,1-1.43-4.42,4.91,4.91,0,0,1,3.36-5.56h0a5.28,5.28,0,0,1-.39-1.16v0q-.06-.3-.09-.6h0a4.9,4.9,0,0,1,0-1.21v-.07c0-.17,0-.35.09-.53a.64.64,0,0,0,0-.07,6.31,6.31,0,0,1,.28-.87,16.59,16.59,0,0,1,0-7.2,5.1,5.1,0,0,1-.19-.55l0,0a5.75,5.75,0,0,1-.21-1.75v-.07a5,5,0,0,1,.05-.53v0a5.92,5.92,0,0,1,.28-1.12.3.3,0,0,0,0-.1c.06-.14.12-.28.19-.41a.67.67,0,0,1,.06-.12,3.83,3.83,0,0,1,.25-.44l0,0a4.58,4.58,0,0,1,.34-.43l.09-.1.3-.29.14-.11.34-.25.12-.08a4.11,4.11,0,0,1,.51-.27l.1,0,.46-.17.19-.05.45-.09h.12a4,4,0,0,1-1.37-3.09,3.61,3.61,0,0,1-.25-.3,5.14,5.14,0,0,1-1.18-3.19v-1.44A5.11,5.11,0,0,1,1371.62,648.28Z"/>
  </g>
</svg>
